<svg width="142" height="61" viewBox="0 0 142 61" fill="none" xmlns="http://www.w3.org/2000/svg">
<path d="M84.7779 1C65.1725 1.00003 15.2779 6.5 5.6725 22.0462C-9.65846 46.8592 16.1725 55.0462 33.6725 58.0462C49.1725 60.2129 84.7779 60 110.173 52.0462C134.984 44.2751 136.173 36.0924 136.173 33.0462C136.173 30 135.473 19.0462 112.673 9.04622C84.1725 -3.45378 28.1725 10.5462 13.1725 18.0462C-1.82748 25.5462 1.53472 38.5609 6.67251 43.5462C11.7779 48.5 29.3447 64.7164 99.6725 58.0462C128.278 55.3331 144.235 39.5 139.278 26C134.321 12.5 111.448 -1.35378 65.1725 9.04622" stroke="#68191E" stroke-width="2" stroke-linecap="round"/>
</svg>
